{
	"buffers":[{
		"uri":"data:application/octet-stream;base64,",
		"byteLength":357312
	}],
	"asset":{
		"generator":"Created using the official Cinema 4D glTF Exporter 1.000x284978",
		"version":"2.0"
	},
	"scenes":[{
		"nodes":[0]
	}],
	"meshes":[{
		"name":"翅中",
		"primitives":[{
			"attributes":{
				"POSITION":1,
				"NORMAL":2,
				"TEXCOORD_0":3
			},
			"indices":0
		}]
	}],
	"nodes":[{
		"name":"翅中",
		"translation":[0.7411974668502808,
		0.2708459496498108,
		-1.6822620630264283],
		"rotation":[-0.7071067690849304,
		0.0,
		0.0,
		-0.7071067690849304],
		"scale":[1.0,
		1.0,
		1.0],
		"mesh":0
	}],
	"accessors":[{
		"bufferView":0,
		"type":"SCALAR",
		"componentType":5123,
		"count":47232,
		"byteOffset":0,
		"min":[0],
		"max":[8213]
	},
	{
		"bufferView":1,
		"type":"VEC3",
		"componentType":5126,
		"count":8214,
		"byteOffset":0,
		"min":[-4.828052043914795,
		-9.865917205810547,
		-2.8230531215667726],
		"max":[5.115313529968262,
		9.52181625366211,
		0.000025759947675396689]
	},
	{
		"bufferView":1,
		"type":"VEC3",
		"componentType":5126,
		"count":8214,
		"byteOffset":12,
		"min":[-0.9648621082305908,
		-0.8042428493499756,
		-0.9999912977218628],
		"max":[0.9444525837898254,
		0.8316670656204224,
		0.999995231628418]
	},
	{
		"bufferView":1,
		"type":"VEC2",
		"componentType":5126,
		"count":8214,
		"byteOffset":24,
		"min":[0.027460534125566484,
		0.0658852607011795],
		"max":[0.9674004316329956,
		0.9269808530807495]
	}],
	"bufferViews":[{
		"buffer":0,
		"byteOffset":0,
		"byteLength":94464,
		"target":34963
	},
	{
		"buffer":0,
		"byteOffset":94464,
		"byteLength":262848,
		"target":34962,
		"byteStride":32
	}]
}