{
	"asset":{
		"version":"2.0",
		"generator":"Created using the official Cinema 4D glTF Exporter 1.000x284978"
	},
	"scenes":[{
		"nodes":[0]
	}],
	"accessors":[{
		"bufferView":0,
		"type":"SCALAR",
		"byteOffset":0,
		"componentType":5123,
		"count":24924,
		"min":[0],
		"max":[4381]
	},
	{
		"bufferView":1,
		"type":"VEC3",
		"byteOffset":0,
		"componentType":5126,
		"count":4382,
		"min":[-3.013700008392334,
		-0.017685486003756524,
		-3.8683760166168215],
		"max":[3.013700008392334,
		2.0965616703033449,
		3.8683760166168215]
	},
	{
		"bufferView":1,
		"type":"VEC3",
		"byteOffset":12,
		"componentType":5126,
		"count":4382,
		"min":[-0.9962143301963806,
		-0.9999988079071045,
		-0.6830125451087952],
		"max":[0.9956890940666199,
		0.9999964237213135,
		0.6820133924484253]
	},
	{
		"bufferView":1,
		"type":"VEC2",
		"byteOffset":24,
		"componentType":5126,
		"count":4382,
		"min":[0.0028223153203725816,
		0.06703934073448181],
		"max":[0.9783270359039307,
		0.6096785068511963]
	},
	{
		"bufferView":2,
		"type":"SCALAR",
		"byteOffset":0,
		"componentType":5123,
		"count":36,
		"min":[0],
		"max":[23]
	},
	{
		"bufferView":3,
		"type":"VEC3",
		"byteOffset":0,
		"componentType":5126,
		"count":24,
		"min":[-3.0016913414001467,
		-1.0157550573349,
		-3.857400894165039],
		"max":[3.0016913414001467,
		1.0157550573349,
		3.857400894165039]
	},
	{
		"bufferView":3,
		"type":"VEC3",
		"byteOffset":12,
		"componentType":5126,
		"count":24,
		"min":[-1.0,
		-1.0,
		-1.0],
		"max":[1.0,
		1.0,
		1.0]
	},
	{
		"bufferView":3,
		"type":"VEC2",
		"byteOffset":24,
		"componentType":5126,
		"count":24,
		"min":[0.0,
		0.0],
		"max":[1.0,
		1.0]
	}],
	"nodes":[{
		"name":"青豌豆",
		"mesh":0,
		"children":[1]
	},
	{
		"name":"大概尺寸",
		"translation":[-0.023419274017214776,
		1.0302358865737916,
		0.008119011297821999],
		"rotation":[0.0,
		0.0,
		0.0,
		-1.0],
		"scale":[1.0,
		1.0,
		1.0],
		"mesh":1
	}],
	"meshes":[{
		"name":"青豌豆",
		"primitives":[{
			"attributes":{
				"POSITION":1,
				"NORMAL":2,
				"TEXCOORD_0":3
			},
			"indices":0
		}]
	},
	{
		"name":"大概尺寸",
		"primitives":[{
			"attributes":{
				"POSITION":5,
				"NORMAL":6,
				"TEXCOORD_0":7
			},
			"indices":4
		}]
	}],
	"bufferViews":[{
		"buffer":0,
		"byteOffset":0,
		"byteLength":49848,
		"target":34963
	},
	{
		"buffer":0,
		"byteOffset":49848,
		"byteLength":140224,
		"target":34962,
		"byteStride":32
	},
	{
		"buffer":1,
		"byteOffset":0,
		"byteLength":72,
		"target":34963
	},
	{
		"buffer":1,
		"byteOffset":72,
		"byteLength":768,
		"target":34962,
		"byteStride":32
	}],
	"buffers":[{
		"uri":"data:application/octet-stream;base64,",
		"byteLength":190072
	},
	{
		"uri":"data:application/octet-stream;base64,",
		"byteLength":840
	}]
}